<svg xmlns="http://www.w3.org/2000/svg" version="1.1" xmlns:xlink="http://www.w3.org/1999/xlink" xmlns:svgjs="http://svgjs.dev/svgjs" width="1500" height="1500" viewBox="0 0 1500 1500"><rect width="1500" height="1500" fill="#000000"></rect><g transform="matrix(0.6666666666666666,0,0,0.6666666666666666,249.39393939393938,612.4119589496916)"><svg viewBox="0 0 396 109" data-background-color="#ffffff" preserveAspectRatio="xMidYMid meet" height="412" width="1500" xmlns="http://www.w3.org/2000/svg" xmlns:xlink="http://www.w3.org/1999/xlink"><g id="tight-bounds" transform="matrix(1,0,0,1,0.2400000000000091,0.1010793973918851)"><svg viewBox="0 0 395.52 108.79784120521624" height="108.79784120521624" width="395.52"><g><svg viewBox="0 0 395.52 108.79784120521624" height="108.79784120521624" width="395.52"><g transform="matrix(1,0,0,1,0,67.24143061774046)"><svg viewBox="0 0 395.52 41.55641058747578" height="41.55641058747578" width="395.52"><g id="textblocktransform"><svg viewBox="0 0 395.52 41.55641058747578" height="41.55641058747578" width="395.52" id="textblock"><g><svg viewBox="0 0 395.52 41.55641058747578" height="41.55641058747578" width="395.52"><g transform="matrix(1,0,0,1,0,0)"><svg width="395.52" viewBox="1.2 -31.18 309.78000000000003 32.56" height="41.55641058747578" data-palette-color="#264f0b"><path d="M15.63 0.93L15.63 0.93Q10.35 0.93 7.14-1.88 3.93-4.67 2.5-9.28L2.5-9.28Q2.23-10.23 2.01-11.25 1.8-12.28 1.65-13.35 1.5-14.43 1.4-15.56 1.3-16.7 1.25-17.88 1.2-19.05 1.2-20.28L1.2-20.28Q1.2-23.68 1.6-25.71 2-27.75 2.89-28.64 3.78-29.53 5.2-29.53L5.2-29.53Q6.2-29.53 6.83-28.76 7.45-28 7.75-26.09 8.05-24.18 8.05-20.7L8.05-20.7Q8.05-19.68 8.08-18.66 8.1-17.65 8.18-16.69 8.25-15.73 8.35-14.8 8.45-13.88 8.61-13.03 8.78-12.18 8.97-11.43L8.97-11.43Q9.73-8.75 11.3-7.13 12.88-5.5 15.68-5.5L15.68-5.5Q17.43-5.5 18.74-6.25 20.05-7 20.98-8.33 21.9-9.65 22.5-11.38L22.5-11.38Q22.83-12.38 23.06-13.49 23.3-14.6 23.45-15.79 23.6-16.98 23.68-18.23 23.75-19.48 23.75-20.73L23.75-20.73Q23.75-23.98 24.1-25.83 24.45-27.68 25.2-28.45 25.95-29.23 27.13-29.23L27.13-29.23Q28.38-29.23 29.04-28.3 29.7-27.38 29.94-25.35 30.18-23.33 30.18-19.98L30.18-19.98Q30.18-18.8 30.11-17.64 30.05-16.48 29.94-15.36 29.83-14.25 29.64-13.19 29.45-12.13 29.2-11.11 28.95-10.1 28.63-9.13L28.63-9.13Q27.63-6.1 25.84-3.84 24.05-1.58 21.5-0.33 18.95 0.93 15.63 0.93ZM38.22 1.05L38.22 1.05Q36.92 1.05 36.06 0.21 35.2-0.63 34.77-2.3L34.77-2.3Q34.6-3 34.47-4.11 34.35-5.23 34.24-6.56 34.12-7.9 34.06-9.3 34-10.7 33.96-12.03 33.92-13.35 33.92-14.4L33.92-14.4Q33.92-17.98 34.35-20.71 34.77-23.45 35.66-25.44 36.55-27.43 37.99-28.69 39.42-29.95 41.46-30.56 43.5-31.18 46.22-31.18L46.22-31.18Q48.82-31.18 51.17-30.61 53.52-30.05 55.34-28.93 57.15-27.8 58.19-26.13 59.22-24.45 59.22-22.25L59.22-22.25Q59.22-20.18 58.3-18.78 57.37-17.38 55.9-16.5 54.42-15.63 52.74-15.15 51.05-14.68 49.52-14.45L49.52-14.45Q48.67-14.33 48.35-14.18 48.02-14.03 48.02-13.73L48.02-13.73Q48.02-13.53 48.34-13.18 48.65-12.83 49.19-12.34 49.72-11.85 50.42-11.21 51.12-10.58 51.87-9.8L51.87-9.8Q52.6-9.08 53.56-8.1 54.52-7.13 55.5-6.09 56.47-5.05 57.31-4.11 58.15-3.18 58.67-2.5 59.2-1.83 59.2-1.6L59.2-1.6Q59.2-0.9 58.77-0.43 58.35 0.05 57.7 0.29 57.05 0.53 56.27 0.53L56.27 0.53Q55.47 0.53 54.51 0.05 53.55-0.43 52.49-1.28 51.42-2.13 50.32-3.25 49.22-4.38 48.12-5.7L48.12-5.7Q46.47-7.55 45.15-8.93 43.82-10.3 42.92-11.08 42.02-11.85 41.67-11.85L41.67-11.85Q41.42-11.85 41.29-11.64 41.15-11.43 41.09-10.89 41.02-10.35 41.01-9.43 41-8.5 41-7.08L41-7.08Q41-6.65 41.01-6 41.02-5.35 41.04-4.63 41.05-3.9 41.05-3.23 41.05-2.55 41.05-2.02 41.05-1.5 41.02-1.28L41.02-1.28Q40.82 0 40.06 0.53 39.3 1.05 38.22 1.05ZM43.75-16.5L43.75-16.5Q44.6-16.5 45.84-16.66 47.07-16.82 48.4-17.23 49.72-17.63 50.89-18.29 52.05-18.95 52.77-19.95 53.5-20.95 53.5-22.3L53.5-22.3Q53.5-23.7 52.84-24.68 52.17-25.65 51.06-26.24 49.95-26.83 48.6-27.1 47.25-27.38 45.87-27.38L45.87-27.38Q44.45-27.38 43.49-26.98 42.52-26.58 41.94-25.78 41.35-24.98 41.07-23.68L41.07-23.68Q40.9-22.95 40.81-22.23 40.72-21.5 40.67-20.79 40.62-20.08 40.62-19.4L40.62-19.4Q40.62-18.3 40.86-17.66 41.1-17.03 41.77-16.76 42.45-16.5 43.75-16.5ZM74.02 1.38L74.02 1.38Q71.27 1.38 69.36 1.1 67.45 0.83 66.26 0.06 65.07-0.7 64.47-2.13 63.87-3.55 63.75-5.83L63.75-5.83Q63.7-6.98 63.68-8.53 63.67-10.08 63.7-11.8 63.72-13.53 63.78-15.25 63.85-16.98 63.92-18.49 64-20 64.07-21.08L64.07-21.08Q64.3-24.43 65.66-26.39 67.02-28.35 69.62-29.19 72.22-30.03 76.17-30.03L76.17-30.03Q78.42-30.03 80.61-29.59 82.8-29.15 84.57-28.23 86.34-27.3 87.41-25.8 88.47-24.3 88.47-22.15L88.47-22.15Q88.47-20.48 87.81-19.31 87.15-18.15 86.21-17.43 85.27-16.7 84.37-16.35L84.37-16.35Q83.47-16 82.84-15.8 82.22-15.6 82.22-15.43L82.22-15.43Q82.22-15.28 83.12-15.13 84.02-14.98 85.34-14.58L85.34-14.58Q87.15-14.05 88.48-13.18 89.82-12.3 90.55-11 91.27-9.7 91.27-7.93L91.27-7.93Q91.27-6.18 90.33-4.59 89.4-3 88.12-1.98L88.12-1.98Q87.12-1.18 85.56-0.55 84 0.08 82.08 0.51 80.17 0.95 78.11 1.16 76.05 1.38 74.02 1.38ZM73.84-3.03L73.84-3.03Q76.45-3.03 78.59-3.36 80.75-3.7 82.31-4.4 83.87-5.1 84.73-6.15 85.59-7.2 85.59-8.6L85.59-8.6Q85.59-9.85 84.63-10.65 83.67-11.45 82.09-11.93 80.52-12.4 78.65-12.63 76.77-12.85 74.91-12.91 73.05-12.98 71.57-12.98L71.57-12.98Q71.12-12.98 70.76-12.78 70.4-12.58 70.13-12.08 69.87-11.58 69.73-10.68 69.59-9.78 69.59-8.38L69.59-8.38Q69.59-6.83 69.72-5.8 69.84-4.78 70.27-4.16 70.7-3.55 71.55-3.29 72.4-3.03 73.84-3.03ZM70.59-16.9L70.59-16.9Q72.55-16.9 74.09-16.96 75.65-17.03 76.95-17.2 78.25-17.38 79.4-17.7L79.4-17.7Q81.22-18.2 82.28-19.19 83.34-20.18 83.34-22.1L83.34-22.1Q83.34-23.2 82.67-24.04 82-24.88 80.88-25.44 79.77-26 78.42-26.28 77.07-26.55 75.72-26.55L75.72-26.55Q74.47-26.55 73.34-26.3 72.22-26.05 71.41-25.54 70.59-25.03 70.25-24.3L70.25-24.3Q70.07-23.93 69.93-23.24 69.8-22.55 69.68-21.75 69.57-20.95 69.53-20.16 69.5-19.38 69.5-18.78L69.5-18.78Q69.5-17.88 69.73-17.39 69.97-16.9 70.59-16.9ZM124.84 1L124.84 1Q123.82 1 123.08 0.49 122.34-0.03 121.77-1.05L121.77-1.05Q121.54-1.73 121.27-2.64 120.99-3.55 120.73-4.5 120.47-5.45 120.19-6.31 119.92-7.18 119.64-7.75L119.64-7.75Q119.29-8.55 118.78-8.93 118.27-9.3 117.27-9.45L117.27-9.45Q116.77-9.5 115.76-9.59 114.74-9.68 113.54-9.74 112.34-9.8 111.29-9.8L111.29-9.8Q109.69-9.8 108.04-9.73 106.39-9.65 105.19-9.53L105.19-9.53Q104.17-9.43 103.66-9.11 103.14-8.8 102.82-8.03L102.82-8.03Q102.49-7.3 102.14-6.28 101.79-5.25 101.44-4.13 101.09-3 100.74-1.93L100.74-1.93Q100.22-0.73 99.48-0.11 98.74 0.5 97.44 0.5L97.44 0.5Q96.44 0.5 95.77 0.18 95.09-0.15 94.77-0.9 94.44-1.65 94.44-2.88L94.44-2.88Q94.44-4.03 94.77-5.64 95.09-7.25 95.66-9.13 96.22-11 96.91-12.93 97.59-14.85 98.31-16.64 99.02-18.43 99.67-19.86 100.32-21.3 100.79-22.15L100.79-22.15Q101.64-23.73 102.73-25.18 103.82-26.63 105.16-27.76 106.49-28.9 108.09-29.56 109.69-30.23 111.62-30.23L111.62-30.23Q114.72-30.23 117.21-28.35 119.69-26.48 121.62-23.38L121.62-23.38Q122.34-22.33 123.08-20.66 123.82-19 124.54-16.99 125.27-14.98 125.89-12.83 126.52-10.68 127.01-8.6 127.49-6.53 127.76-4.78 128.02-3.03 128.02-1.83L128.02-1.83Q128.02-0.28 127.17 0.36 126.32 1 124.84 1ZM117.59-13.78L117.59-13.78Q118.14-13.88 118.32-14.2 118.49-14.53 118.49-15.23L118.49-15.23Q118.49-16 118.23-17.14 117.97-18.28 117.52-19.54 117.07-20.8 116.47-21.9L116.47-21.9Q115.62-23.53 114.47-24.61 113.32-25.7 111.99-25.7L111.99-25.7Q110.54-25.7 109.23-24.56 107.92-23.43 106.92-21.68L106.92-21.68Q106.49-20.98 106.04-20.08 105.59-19.18 105.22-18.23 104.84-17.28 104.61-16.44 104.37-15.6 104.37-15.03L104.37-15.03Q104.37-14.28 104.97-13.99 105.57-13.7 106.89-13.7L106.89-13.7Q109.69-13.7 111.74-13.7 113.79-13.7 115.23-13.7 116.67-13.7 117.59-13.78ZM136.02 1.2L136.02 1.2Q134.99 1.2 134.33 0.56 133.66-0.08 133.22-1.23L133.22-1.23Q132.99-1.83 132.79-3.21 132.59-4.6 132.41-6.45 132.24-8.3 132.1-10.31 131.97-12.33 131.87-14.25 131.77-16.18 131.72-17.71 131.66-19.25 131.66-20.08L131.66-20.08Q131.66-23 132.05-25.04 132.44-27.08 133.47-28.16 134.49-29.25 136.44-29.25L136.44-29.25Q137.79-29.25 139.12-28.16 140.44-27.08 142.22-24.73 143.99-22.38 146.62-18.6L146.62-18.6Q150.12-13.45 152.24-10.96 154.37-8.47 155.29-8.47L155.29-8.47Q155.74-8.47 156.03-8.7 156.31-8.93 156.48-9.61 156.64-10.3 156.69-11.7L156.69-11.7Q156.74-12.3 156.74-13.53 156.74-14.75 156.73-16.29 156.72-17.82 156.69-19.45 156.67-21.08 156.67-22.53 156.67-23.98 156.68-25 156.69-26.03 156.74-26.38L156.74-26.38Q157.04-27.88 157.72-28.45 158.39-29.03 159.59-29.03L159.59-29.03Q160.49-29.03 161.1-28.71 161.72-28.4 162.1-27.79 162.49-27.18 162.68-26.21 162.87-25.25 162.92-23.95L162.92-23.95Q162.94-23.2 162.97-21.78 162.99-20.35 163.02-18.54 163.04-16.73 163.03-14.78 163.02-12.83 162.98-10.99 162.94-9.15 162.87-7.65 162.79-6.15 162.64-5.25L162.64-5.25Q162.34-3.33 161.73-2.04 161.12-0.75 160.1-0.11 159.09 0.53 157.52 0.53L157.52 0.53Q156.09 0.53 154.39-0.91 152.69-2.35 150.73-4.89 148.77-7.43 146.54-10.63L146.54-10.63Q145.12-12.68 143.89-14.41 142.66-16.15 141.73-17.44 140.79-18.73 140.14-19.44 139.49-20.15 139.16-20.15L139.16-20.15Q138.59-20.15 138.37-19.49 138.14-18.82 138.14-16.82L138.14-16.82Q138.14-15.68 138.19-14.29 138.24-12.9 138.31-11.43 138.39-9.95 138.49-8.46 138.59-6.98 138.64-5.59 138.69-4.2 138.7-3.03 138.72-1.85 138.64-1L138.64-1Q138.37 0.28 137.72 0.74 137.06 1.2 136.02 1.2ZM186.71 1.2L186.71 1.2Q185.29 1.2 184.69 0.34 184.09-0.53 183.69-2.15L183.69-2.15Q183.49-3.18 183.34-4.4 183.19-5.63 183.11-6.96 183.04-8.3 183-9.71 182.96-11.13 182.96-12.55L182.96-12.55Q183.01-14.35 183.11-16.15 183.21-17.95 183.39-19.61 183.56-21.28 183.8-22.59 184.04-23.9 184.31-24.68L184.31-24.68Q184.96-26.53 186.04-27.63 187.11-28.73 188.51-29.21 189.91-29.7 191.44-29.7L191.44-29.7Q193.19-29.7 194.47-28.93 195.76-28.15 196.46-26.68L196.46-26.68Q196.86-25.85 197.26-24.63 197.66-23.4 198.02-22.03 198.39-20.65 198.7-19.29 199.01-17.93 199.24-16.78L199.24-16.78Q199.51-15.35 199.87-14.26 200.24-13.18 200.96-13.18L200.96-13.18Q201.69-13.18 202.05-14.08 202.41-14.98 202.61-16.07L202.61-16.07Q202.81-17.35 203.06-18.8 203.31-20.25 203.62-21.69 203.94-23.13 204.3-24.43 204.66-25.73 205.04-26.73L205.04-26.73Q205.71-28.15 206.95-28.93 208.19-29.7 210.14-29.7L210.14-29.7Q211.59-29.7 212.79-29.19 213.99-28.68 214.94-27.7 215.89-26.73 216.54-25.3L216.54-25.3Q217.11-24.13 217.52-22.19 217.94-20.25 218.16-17.81 218.39-15.38 218.44-12.73L218.44-12.73Q218.44-11.4 218.44-10.08 218.44-8.75 218.39-7.44 218.34-6.13 218.25-4.86 218.16-3.6 217.99-2.4L217.99-2.4Q217.64-0.95 216.87-0.29 216.11 0.38 214.69 0.38L214.69 0.38Q213.81 0.38 213.3-0.08 212.79-0.53 212.64-1.35L212.64-1.35Q212.59-2.2 212.54-3.14 212.49-4.08 212.42-5.09 212.36-6.1 212.31-7.13 212.26-8.15 212.21-9.15L212.21-9.15Q212.14-11.13 212.01-12.96 211.89-14.8 211.72-16.26 211.56-17.73 211.34-18.48L211.34-18.48Q210.91-19.88 210.37-20.6 209.84-21.33 208.79-21.33L208.79-21.33Q207.91-21.33 207.25-20.61 206.59-19.9 206.26-18.5L206.26-18.5Q206.14-17.9 205.96-16.99 205.79-16.07 205.6-14.99 205.41-13.9 205.22-12.74 205.04-11.58 204.86-10.46 204.69-9.35 204.54-8.4L204.54-8.4Q204.16-6.45 203.3-5.46 202.44-4.48 200.89-4.48L200.89-4.48Q199.04-4.48 198.24-5.78 197.44-7.08 196.79-9.28L196.79-9.28Q196.64-10 196.41-11.05 196.19-12.1 195.94-13.29 195.69-14.48 195.44-15.65 195.19-16.82 194.97-17.79 194.76-18.75 194.59-19.35L194.59-19.35Q194.26-20.65 193.7-21.25 193.14-21.85 192.36-21.85L192.36-21.85Q191.26-21.85 190.77-21.03 190.29-20.2 189.99-18.4L189.99-18.4Q189.89-17.8 189.81-16.85 189.74-15.9 189.69-14.71 189.64-13.53 189.6-12.18 189.56-10.83 189.56-9.43L189.56-9.43Q189.56-7.98 189.55-6.68 189.54-5.38 189.49-4.25 189.44-3.13 189.37-2.26 189.31-1.4 189.21-0.85L189.21-0.85Q188.94 0.08 188.35 0.64 187.76 1.2 186.71 1.2ZM252.53 1L252.53 1Q251.51 1 250.77 0.49 250.03-0.03 249.46-1.05L249.46-1.05Q249.23-1.73 248.96-2.64 248.68-3.55 248.42-4.5 248.16-5.45 247.88-6.31 247.61-7.18 247.33-7.75L247.33-7.75Q246.98-8.55 246.47-8.93 245.96-9.3 244.96-9.45L244.96-9.45Q244.46-9.5 243.44-9.59 242.43-9.68 241.23-9.74 240.03-9.8 238.98-9.8L238.98-9.8Q237.38-9.8 235.73-9.73 234.08-9.65 232.88-9.53L232.88-9.53Q231.86-9.43 231.34-9.11 230.83-8.8 230.51-8.03L230.51-8.03Q230.18-7.3 229.83-6.28 229.48-5.25 229.13-4.13 228.78-3 228.43-1.93L228.43-1.93Q227.91-0.73 227.17-0.11 226.43 0.5 225.13 0.5L225.13 0.5Q224.13 0.5 223.46 0.18 222.78-0.15 222.46-0.9 222.13-1.65 222.13-2.88L222.13-2.88Q222.13-4.03 222.46-5.64 222.78-7.25 223.34-9.13 223.91-11 224.59-12.93 225.28-14.85 226-16.64 226.71-18.43 227.36-19.86 228.01-21.3 228.48-22.15L228.48-22.15Q229.33-23.73 230.42-25.18 231.51-26.63 232.84-27.76 234.18-28.9 235.78-29.56 237.38-30.23 239.31-30.23L239.31-30.23Q242.41-30.23 244.9-28.35 247.38-26.48 249.31-23.38L249.31-23.38Q250.03-22.33 250.77-20.66 251.51-19 252.23-16.99 252.96-14.98 253.58-12.83 254.21-10.68 254.69-8.6 255.18-6.53 255.44-4.78 255.71-3.03 255.71-1.83L255.71-1.83Q255.71-0.28 254.86 0.36 254.01 1 252.53 1ZM245.28-13.78L245.28-13.78Q245.83-13.88 246.01-14.2 246.18-14.53 246.18-15.23L246.18-15.23Q246.18-16 245.92-17.14 245.66-18.28 245.21-19.54 244.76-20.8 244.16-21.9L244.16-21.9Q243.31-23.53 242.16-24.61 241.01-25.7 239.68-25.7L239.68-25.7Q238.23-25.7 236.92-24.56 235.61-23.43 234.61-21.68L234.61-21.68Q234.18-20.98 233.73-20.08 233.28-19.18 232.91-18.23 232.53-17.28 232.3-16.44 232.06-15.6 232.06-15.03L232.06-15.03Q232.06-14.28 232.66-13.99 233.26-13.7 234.58-13.7L234.58-13.7Q237.38-13.7 239.43-13.7 241.48-13.7 242.92-13.7 244.36-13.7 245.28-13.78ZM264.98 0.83L264.98 0.83Q261.73 0.13 260.54-2.45 259.36-5.03 259.36-9.3L259.36-9.3Q259.36-10.53 259.42-12.11 259.48-13.7 259.61-15.43 259.73-17.15 259.88-18.8 260.03-20.45 260.18-21.83 260.33-23.2 260.46-24.05L260.46-24.05Q260.96-27.38 261.93-28.88 262.91-30.38 264.58-30.38L264.58-30.38Q265.66-30.38 266.18-29.91 266.71-29.45 266.88-28.6 267.06-27.75 267.06-26.58L267.06-26.58Q267.06-25.8 267.01-24.76 266.96-23.73 266.91-22.55 266.86-21.38 266.81-20.09 266.76-18.8 266.71-17.53 266.66-16.25 266.64-15.04 266.63-13.83 266.66-12.75L266.66-12.75Q266.71-10.63 266.92-9.2 267.13-7.78 267.76-6.96 268.38-6.15 269.59-5.79 270.81-5.43 272.86-5.4L272.86-5.4Q274.63-5.33 276.22-5.26 277.81-5.2 278.83-5.13L278.83-5.13Q280.33-5.23 281.28-5.21 282.23-5.2 282.71-5.03L282.71-5.03Q283.11-4.83 283.29-4.46 283.48-4.1 283.48-3.45L283.48-3.45Q283.48-2.4 282.83-1.68 282.18-0.95 281.02-0.45 279.86 0.05 278.33 0.43L278.33 0.43Q276.73 0.8 274.63 1.03 272.53 1.25 270.46 1.25L270.46 1.25Q269.63 1.25 268.62 1.21 267.61 1.18 266.64 1.07 265.68 0.98 264.98 0.83ZM292.48 0.83L292.48 0.83Q289.23 0.13 288.04-2.45 286.85-5.03 286.85-9.3L286.85-9.3Q286.85-10.53 286.92-12.11 286.98-13.7 287.1-15.43 287.23-17.15 287.38-18.8 287.53-20.45 287.68-21.83 287.83-23.2 287.95-24.05L287.95-24.05Q288.45-27.38 289.43-28.88 290.4-30.38 292.08-30.38L292.08-30.38Q293.15-30.38 293.68-29.91 294.2-29.45 294.38-28.6 294.55-27.75 294.55-26.58L294.55-26.58Q294.55-25.8 294.5-24.76 294.45-23.73 294.4-22.55 294.35-21.38 294.3-20.09 294.25-18.8 294.2-17.53 294.15-16.25 294.14-15.04 294.13-13.83 294.15-12.75L294.15-12.75Q294.2-10.63 294.42-9.2 294.63-7.78 295.25-6.96 295.88-6.15 297.09-5.79 298.3-5.43 300.35-5.4L300.35-5.4Q302.13-5.33 303.72-5.26 305.3-5.2 306.33-5.13L306.33-5.13Q307.83-5.23 308.78-5.21 309.73-5.2 310.2-5.03L310.2-5.03Q310.6-4.83 310.79-4.46 310.98-4.1 310.98-3.45L310.98-3.45Q310.98-2.4 310.33-1.68 309.68-0.95 308.52-0.45 307.35 0.05 305.83 0.43L305.83 0.43Q304.23 0.8 302.13 1.03 300.03 1.25 297.95 1.25L297.95 1.25Q297.13 1.25 296.12 1.21 295.1 1.18 294.14 1.07 293.18 0.98 292.48 0.83Z" opacity="1" transform="matrix(1,0,0,1,0,0)" fill="#ffffff" class="wordmark-text-0" data-fill-palette-color="primary" id="text-0"></path></svg></g></svg></g></svg></g></svg></g><g transform="matrix(1,0,0,1,166.94546547323182,0)"><svg viewBox="0 0 61.62906905353637 57.43095943189154" height="57.43095943189154" width="61.62906905353637"><g><svg xmlns="http://www.w3.org/2000/svg" xmlns:xlink="http://www.w3.org/1999/xlink" version="1.0" x="0" y="0" viewBox="3.9652414017798736 6.5153206659267875 92.06951750268354 85.79783543407319" enable-background="new 0 0 100 100" xml:space="preserve" height="57.43095943189154" width="61.62906905353637" class="icon-icon-0" data-fill-palette-color="accent" id="icon-0"><circle cx="60.4999924" cy="55.1433144" r="1.9" fill="#ffffff" data-fill-palette-color="accent"></circle><path d="M83.447 50.36L53.573 25.893c-2.047-1.787-5.099-1.787-7.146 0L16.566 50.348c-1.434 1.252-2.257 3.062-2.256 4.966v34.158c0 1.563 1.278 2.841 2.841 2.841h65.698c1.563 0 2.841-1.279 2.841-2.841V55.296C85.69 53.404 84.873 51.604 83.447 50.36zM42.321 79.917c-1.72 0-3.115-1.395-3.116-3.115 0-1.721 1.395-3.116 3.116-3.116 1.721 0 3.116 1.395 3.116 3.116C45.437 78.522 44.041 79.917 42.321 79.917zM55.451 79.917c-1.719 0-3.115-1.395-3.115-3.115 0-1.721 1.396-3.116 3.115-3.116 1.721 0 3.116 1.395 3.116 3.116C58.567 78.522 57.172 79.917 55.451 79.917zM61.867 59.753l-1.628 9.183c-0.213 1.196-1.248 2.056-2.452 2.056-0.033 0-0.066-0.001-0.1-0.002L39.293 70.258c-1.143-0.046-2.106-0.861-2.339-1.98l-1.986-9.51c-0.141-0.679 0.011-1.398 0.416-1.962 0.404-0.563 1.038-0.937 1.726-1.02l18.699-2.24c0.681-1.815 2.431-3.106 4.485-3.107 2.646 0.002 4.788 2.143 4.789 4.789C65.082 57.323 63.74 59.102 61.867 59.753z" fill="#ffffff" data-fill-palette-color="accent"></path><path d="M94.599 42.209L52.513 7.377c-0.732-0.605-1.628-0.884-2.513-0.86-0.885-0.024-1.781 0.255-2.513 0.86L32.031 20.169c-0.717 0.593-1.802 0.083-1.801-0.848v-6.371c0-1.563-1.278-2.841-2.841-2.841h-7.577c-1.563 0-2.841 1.279-2.841 2.841v18.45c0 0.781-0.348 1.522-0.95 2.019l-10.62 8.79c-1.489 1.232-1.899 3.399-0.853 5.024 1.247 1.937 3.885 2.302 5.606 0.876l36.745-30.41c1.799-1.489 4.403-1.489 6.202 0l36.745 30.41c1.722 1.425 4.36 1.061 5.606-0.876C96.498 45.607 96.088 43.441 94.599 42.209z" fill="#ffffff" data-fill-palette-color="accent"></path></svg></g></svg></g><g></g></svg></g><defs></defs></svg><rect width="395.52" height="108.79784120521624" fill="none" stroke="none" visibility="hidden"></rect></g></svg></g></svg>