<?xml version="1.0" standalone="no"?>
<!DOCTYPE svg PUBLIC "-//W3C//DTD SVG 20010904//EN"
 "http://www.w3.org/TR/2001/REC-SVG-20010904/DTD/svg10.dtd">
<svg version="1.0" xmlns="http://www.w3.org/2000/svg"
 width="1500.000000pt" height="1500.000000pt" viewBox="0 0 1500.000000 1500.000000"
 preserveAspectRatio="xMidYMid meet">
<metadata>
Created by potrace 1.14, written by Peter Selinger 2001-2017
</metadata>
<g transform="translate(0.000000,1500.000000) scale(0.100000,-0.100000)"
fill="#000000" stroke="none">
<path d="M7470 9553 c-13 -5 -146 -107 -160 -123 -3 -3 -30 -25 -60 -50 -30
-25 -57 -47 -60 -50 -3 -3 -40 -34 -84 -68 -100 -80 -106 -76 -106 57 -1 140
-12 149 -183 146 -161 -2 -152 15 -153 -298 -1 -138 -2 -257 -3 -264 0 -6 -67
-66 -148 -133 -82 -67 -155 -133 -164 -148 -43 -72 34 -163 113 -133 13 5 44
26 68 46 25 21 65 54 89 74 24 20 72 59 105 87 34 28 140 116 236 195 96 80
240 199 321 266 165 137 175 143 222 143 33 0 105 -45 172 -107 11 -10 54 -45
95 -78 41 -33 80 -65 85 -71 6 -6 33 -28 60 -51 53 -42 463 -381 505 -417 86
-73 115 -91 151 -91 43 0 67 18 85 62 23 53 5 80 -128 189 -66 54 -126 104
-132 109 -16 15 -802 665 -837 692 -18 14 -68 23 -89 16z"/>
<path d="M7440 9082 c-19 -10 -46 -27 -60 -39 -14 -12 -70 -58 -125 -103 -55
-45 -113 -93 -130 -107 -16 -14 -134 -110 -262 -214 -169 -139 -236 -200 -249
-227 -16 -34 -17 -78 -18 -486 -1 -471 1 -498 43 -514 15 -5 1634 -9 1713 -3
10 0 25 13 34 27 15 23 17 71 18 467 1 243 -3 459 -8 480 -11 49 -40 78 -236
238 -91 74 -174 142 -185 151 -181 152 -397 323 -422 334 -43 19 -72 18 -113
-4z m374 -652 c34 -13 58 -52 64 -105 4 -43 2 -48 -38 -87 -43 -40 -44 -43
-62 -152 -19 -109 -36 -155 -61 -157 -30 -2 -282 5 -469 14 -56 3 -72 23 -91
113 -43 198 -44 219 -16 237 13 9 47 18 74 22 139 16 268 31 340 41 28 4 58 7
68 6 9 0 27 13 40 30 37 52 85 64 151 38z m-456 -594 c7 -6 17 -27 22 -45 8
-30 6 -36 -20 -62 -34 -34 -67 -37 -104 -8 -59 47 -12 146 63 132 14 -2 32
-10 39 -17z m334 -4 c48 -48 13 -131 -55 -132 -57 0 -98 77 -64 121 31 39 85
45 119 11z"/>
<path d="M7724 8343 c-9 -35 7 -58 42 -58 20 0 32 7 40 24 18 34 -1 61 -43 61
-27 0 -34 -5 -39 -27z"/>
<path d="M2093 7008 c-121 -12 -232 -59 -306 -127 -86 -81 -151 -256 -172
-466 -7 -65 -7 -419 0 -500 15 -188 19 -223 31 -289 7 -42 47 -112 77 -136 26
-21 42 -25 94 -25 58 0 66 3 95 33 l33 32 5 265 c5 285 8 300 54 276 31 -17
129 -113 241 -236 215 -238 295 -308 384 -338 107 -35 227 32 189 106 -21 41
-143 174 -329 360 -110 109 -199 204 -199 212 0 15 31 25 135 45 257 51 393
170 399 352 7 174 -97 311 -290 384 -134 50 -287 68 -441 52z m272 -203 c151
-50 222 -178 166 -300 -50 -112 -240 -195 -446 -196 -137 -1 -162 31 -151 196
12 198 50 275 151 313 41 16 218 8 280 -13z"/>
<path d="M12673 6960 c-89 -40 -131 -162 -158 -470 -3 -30 -7 -68 -10 -85 -17
-124 -25 -499 -13 -604 11 -89 49 -189 90 -235 47 -54 131 -92 228 -105 91
-11 323 -11 405 0 33 4 82 11 109 14 74 10 222 61 260 90 90 68 78 195 -18
195 -104 -1 -482 11 -513 16 -112 16 -175 57 -193 122 -25 95 -31 316 -17 632
18 387 10 427 -93 444 -23 3 -49 -1 -77 -14z"/>
<path d="M14016 6969 c-37 -10 -73 -44 -97 -92 -24 -47 -56 -172 -64 -252 -8
-76 -15 -150 -20 -195 -19 -170 -28 -573 -14 -650 21 -118 51 -181 111 -237
79 -72 188 -94 443 -88 231 6 366 28 476 79 89 41 119 77 119 143 0 53 -26 83
-72 83 -150 -1 -504 12 -551 21 -112 20 -158 70 -176 194 -6 43 -8 183 -4 360
11 521 10 556 -10 592 -9 18 -27 35 -40 38 -48 11 -73 12 -101 4z"/>
<path d="M5230 6950 c-177 -54 -319 -201 -439 -455 -35 -74 -97 -223 -111
-265 -4 -14 -24 -70 -44 -125 -20 -55 -48 -141 -62 -192 -83 -306 -57 -423 95
-425 76 0 122 32 158 112 6 14 30 82 52 152 43 134 71 192 99 203 91 36 602
35 694 -2 21 -8 46 -29 57 -47 19 -30 28 -56 90 -262 26 -86 37 -107 69 -136
42 -38 90 -52 143 -43 48 9 96 41 106 73 20 58 2 214 -47 412 -88 357 -176
583 -285 735 -171 238 -367 328 -575 265z m214 -220 c111 -56 242 -322 239
-488 0 -24 -6 -49 -12 -55 -13 -13 -538 -24 -599 -12 -78 15 -84 56 -28 206
45 118 121 242 184 300 77 70 143 85 216 49z"/>
<path d="M11380 6946 c-86 -28 -143 -63 -211 -129 -133 -129 -224 -299 -362
-677 -32 -85 -81 -246 -91 -296 -3 -10 -9 -41 -16 -69 -6 -27 -11 -83 -11
-123 0 -117 39 -163 140 -164 102 0 137 41 200 237 60 184 78 217 123 232 97
32 541 33 662 2 71 -19 87 -47 152 -274 44 -149 76 -197 147 -216 73 -20 167
15 184 69 22 68 2 217 -72 512 -30 121 -116 365 -165 469 -168 351 -423 511
-680 427z m213 -210 c68 -30 130 -109 184 -231 56 -129 84 -288 55 -317 -10
-10 -86 -14 -301 -16 -240 -3 -295 -1 -325 12 -20 8 -37 20 -37 25 -1 6 -2 17
-3 24 -7 47 66 232 133 339 92 146 199 206 294 164z"/>
<path d="M3448 6945 c-228 -37 -333 -127 -373 -323 -35 -166 -41 -872 -9 -968
40 -122 122 -182 270 -199 117 -14 417 -8 484 10 8 2 33 6 55 10 80 12 209 52
278 87 49 24 120 90 157 143 79 115 81 271 4 372 -57 75 -196 141 -354 167
-30 5 -14 21 40 41 78 29 109 48 154 92 75 74 100 187 68 302 -34 118 -183
226 -357 257 -22 3 -49 9 -60 11 -45 11 -285 9 -357 -2z m308 -169 c180 -39
260 -135 223 -270 -32 -117 -193 -173 -508 -178 -141 -3 -145 0 -145 109 0
227 39 303 174 339 60 17 180 16 256 0z m-51 -651 c302 -29 425 -110 385 -253
-29 -108 -170 -182 -400 -208 -89 -11 -238 -5 -276 10 -69 28 -84 72 -84 234
0 143 17 204 64 222 21 7 214 5 311 -5z"/>
<path d="M9105 6930 c-82 -22 -114 -41 -164 -95 -64 -69 -99 -164 -116 -315
-4 -30 -8 -66 -10 -80 -7 -49 -18 -277 -18 -365 0 -95 11 -327 17 -360 2 -11
7 -40 11 -65 11 -69 42 -144 71 -171 33 -31 107 -34 148 -6 58 41 65 90 71
477 6 361 12 443 41 533 22 67 62 90 126 74 19 -5 33 -21 52 -60 14 -28 27
-63 30 -77 11 -56 68 -319 81 -376 8 -33 15 -67 15 -75 1 -25 67 -176 86 -197
30 -31 60 -42 112 -43 80 -2 132 37 161 121 10 29 39 187 67 370 15 92 45 223
58 248 43 83 135 95 180 23 48 -77 67 -190 81 -486 18 -387 23 -446 41 -472
35 -55 135 -54 190 1 56 56 69 147 69 501 0 224 -8 371 -25 454 -5 25 -12 57
-14 71 -20 117 -63 214 -123 281 -68 75 -165 109 -274 98 -125 -14 -184 -66
-228 -204 -27 -83 -71 -279 -85 -380 -17 -118 -43 -187 -76 -205 -43 -23 -78
54 -114 245 -24 127 -91 350 -123 410 -61 114 -194 163 -338 125z"/>
<path d="M183 6930 c-52 -12 -80 -36 -106 -92 -35 -73 -48 -189 -46 -386 5
-401 71 -625 239 -806 80 -86 197 -148 324 -172 64 -12 231 -6 294 10 308 81
493 362 529 807 16 194 5 452 -23 531 -51 152 -224 120 -258 -47 -12 -62 -17
-124 -21 -265 -7 -278 -38 -436 -111 -560 -65 -111 -158 -171 -267 -172 -254
-2 -368 196 -376 657 -6 323 -19 411 -69 464 -31 33 -62 42 -109 31z"/>
<path d="M6455 6900 c-68 -33 -105 -105 -124 -241 -8 -56 -6 -385 3 -509 2
-25 7 -101 11 -170 4 -69 9 -133 11 -142 1 -9 6 -48 9 -85 8 -85 30 -185 49
-221 29 -55 62 -76 120 -76 67 1 100 24 117 82 12 42 9 246 -8 522 -11 181 -8
372 6 398 16 31 43 28 80 -10 18 -18 105 -136 194 -262 338 -476 448 -611 553
-672 36 -21 58 -27 104 -26 151 1 228 120 246 380 9 125 9 768 0 852 -14 128
-64 190 -156 190 -62 0 -104 -28 -124 -82 -13 -36 -16 -107 -18 -448 -3 -369
-5 -408 -21 -433 -53 -81 -149 11 -437 423 -185 264 -310 429 -360 474 -85 76
-174 96 -255 56z"/>
</g>
</svg>
